<?xml version="1.0" encoding="UTF-8" standalone="no"?>
<!-- Generator: Adobe Illustrator 25.4.1, SVG Export Plug-In . SVG Version: 6.00 Build 0)  -->

<svg
   version="1.1"
   id="Layer_1"
   x="0px"
   y="0px"
   viewBox="0 0 1225 228.8"
   xml:space="preserve"
   sodipodi:docname="Design_2 grüne Schrift.svg"
   width="1225"
   height="228.8"
   inkscape:version="1.2.2 (732a01da63, 2022-12-09)"
   xmlns:inkscape="http://www.inkscape.org/namespaces/inkscape"
   xmlns:sodipodi="http://sodipodi.sourceforge.net/DTD/sodipodi-0.dtd"
   xmlns="http://www.w3.org/2000/svg"
   xmlns:svg="http://www.w3.org/2000/svg"><defs
   id="defs300" /><sodipodi:namedview
   id="namedview298"
   pagecolor="#ffffff"
   bordercolor="#000000"
   borderopacity="0.25"
   inkscape:showpageshadow="2"
   inkscape:pageopacity="0.0"
   inkscape:pagecheckerboard="0"
   inkscape:deskcolor="#d1d1d1"
   showgrid="false"
   inkscape:zoom="0.4315"
   inkscape:cx="304.75087"
   inkscape:cy="113.55736"
   inkscape:window-width="1920"
   inkscape:window-height="1017"
   inkscape:window-x="3832"
   inkscape:window-y="-6"
   inkscape:window-maximized="1"
   inkscape:current-layer="Layer_1" />
<style
   type="text/css"
   id="style263">
	.st0{fill:#007676;}
	.st1{fill:#ED941C;}
	.st2{fill:#FFFFFF;}
</style>
<g
   id="g295"
   transform="translate(-387.5,-885.6)">
	<g
   id="g269">
		<path
   class="st1"
   d="M 561.4,1069.5 H 387.5 V 957.2 l 47.2,59.4 c 30.3,0.3 96.3,-0.3 126.7,0 z"
   id="path265" />
		<path
   class="st0"
   d="m 560.6,1016.6 v 52.8 H 387.5 c 1.1,25.1 21.7,45 47.1,45 h 131.2 c 21.6,0 39.5,-17.3 39.7,-38.9 0.1,-10.5 -1.6,-20.6 -4.7,-30.1 -5.6,-17.2 -22,-28.8 -40.2,-28.8 z"
   id="path267" />
	</g>
	<g
   id="g275">
		<path
   class="st1"
   d="M 471.1,930.5 H 645 v 112.3 l -47.2,-59.4 c -30.3,-0.3 -96.3,0.3 -126.7,0 z"
   id="path271" />
		<path
   class="st0"
   d="M 471.9,983.4 V 930.6 H 645 c -1.1,-25.1 -21.7,-45 -47.1,-45 H 466.7 c -21.6,0 -39.5,17.3 -39.7,38.9 -0.1,10.5 1.6,20.6 4.7,30.1 5.6,17.2 22,28.8 40.2,28.8 z"
   id="path273" />
	</g>
	<g
   id="g293">
		<path
   class="st0"
   d="m 775.2,1065.7 c -11,0 -21.6,-1.5 -31.7,-4.4 -10.1,-3 -18.3,-6.8 -24.4,-11.5 l 10.8,-24.1 c 5.9,4.2 12.9,7.7 21,10.4 8.1,2.7 16.3,4 24.5,4 6.3,0 11.4,-0.6 15.3,-1.9 3.9,-1.2 6.7,-3 8.6,-5.2 1.8,-2.2 2.8,-4.8 2.8,-7.7 0,-3.7 -1.4,-6.6 -4.3,-8.8 -2.9,-2.2 -6.7,-3.9 -11.4,-5.3 -4.7,-1.4 -10,-2.7 -15.7,-3.9 -5.7,-1.2 -11.4,-2.8 -17.1,-4.6 -5.7,-1.8 -10.9,-4.2 -15.7,-7.1 -4.7,-2.9 -8.6,-6.7 -11.5,-11.4 -3,-4.7 -4.4,-10.8 -4.4,-18.1 0,-7.9 2.1,-15.1 6.4,-21.6 4.3,-6.5 10.7,-11.7 19.3,-15.6 8.6,-3.9 19.4,-5.8 32.4,-5.8 8.7,0 17.2,1 25.6,3.1 8.4,2 15.8,5.1 22.3,9.2 l -9.9,24.3 c -6.4,-3.7 -12.9,-6.4 -19.3,-8.2 -6.4,-1.8 -12.8,-2.7 -18.9,-2.7 -6.2,0 -11.2,0.7 -15.2,2.2 -3.9,1.4 -6.8,3.3 -8.5,5.6 -1.7,2.3 -2.6,5 -2.6,8 0,3.5 1.4,6.4 4.3,8.6 2.9,2.2 6.7,3.9 11.4,5.2 4.7,1.3 10,2.6 15.7,3.9 5.7,1.3 11.4,2.8 17.2,4.5 5.7,1.7 10.9,4 15.7,6.9 4.7,2.9 8.6,6.7 11.5,11.4 3,4.7 4.4,10.7 4.4,17.9 0,7.8 -2.2,14.9 -6.5,21.3 -4.3,6.4 -10.8,11.6 -19.4,15.6 -8.7,3.8 -19.6,5.8 -32.7,5.8 z"
   id="path277" />
		<path
   class="st0"
   d="m 868.8,942.5 c -5.7,0 -10.2,-1.6 -13.8,-4.9 -3.5,-3.3 -5.3,-7.4 -5.3,-12.2 0,-4.9 1.8,-8.9 5.3,-12.2 3.5,-3.3 8.1,-4.9 13.8,-4.9 5.6,0 10.2,1.5 13.8,4.6 3.5,3.1 5.3,7.1 5.3,11.9 0,5.1 -1.7,9.4 -5.2,12.7 -3.5,3.3 -8.1,5 -13.9,5 z m -15.4,120.8 V 957.2 h 30.8 v 106.1 z"
   id="path279" />
		<path
   class="st0"
   d="M 912.8,1063.3 V 957.2 h 29.4 v 29 l -5.5,-8.5 c 3.7,-7.2 8.9,-12.7 15.7,-16.5 6.8,-3.7 14.5,-5.6 23.2,-5.6 9.7,0 18.2,2.5 25.5,7.4 7.3,4.9 12.1,12.5 14.5,22.6 l -10.8,-3 c 3.5,-8.3 9.2,-14.9 17.1,-19.7 7.8,-4.9 16.8,-7.3 26.9,-7.3 8.4,0 15.9,1.7 22.4,5 6.5,3.4 11.6,8.5 15.4,15.4 3.7,6.9 5.6,15.7 5.6,26.5 v 60.7 h -30.8 v -56 c 0,-8.5 -1.8,-14.9 -5.3,-18.9 -3.5,-4.1 -8.5,-6.1 -15,-6.1 -4.5,0 -8.5,1 -12,3.1 -3.5,2 -6.3,5.1 -8.3,9.2 -2,4.1 -3,9.3 -3,15.6 v 53.2 H 987 v -56 c 0,-8.5 -1.7,-14.9 -5.2,-18.9 -3.5,-4.1 -8.4,-6.1 -14.9,-6.1 -4.5,0 -8.5,1 -12,3.1 -3.5,2 -6.3,5.1 -8.3,9.2 -2,4.1 -3,9.3 -3,15.6 v 53.2 h -30.8 z"
   id="path281" />
		<path
   class="st0"
   d="M 1119.6,1101.6 V 957.2 h 29.4 v 21.7 l -0.6,31.5 2,31.3 v 59.7 h -30.8 z m 62.7,-36.7 c -8.9,0 -16.8,-2 -23.5,-5.9 -6.7,-3.9 -11.9,-10 -15.7,-18 -3.7,-8.1 -5.6,-18.3 -5.6,-30.7 0,-12.5 1.8,-22.7 5.3,-30.8 3.5,-8 8.7,-14 15.4,-17.9 6.7,-3.9 14.7,-5.9 24.1,-5.9 10,0 19,2.3 26.9,6.8 8,4.5 14.3,10.9 18.9,19 4.7,8.2 7,17.7 7,28.8 0,11.2 -2.3,20.8 -7,29 -4.7,8.2 -11,14.5 -18.9,18.9 -8,4.5 -16.9,6.7 -26.9,6.7 z m -5.3,-25.2 c 5.1,0 9.7,-1.2 13.7,-3.5 4,-2.4 7.2,-5.7 9.7,-10.2 2.4,-4.4 3.6,-9.6 3.6,-15.7 0,-6.2 -1.2,-11.4 -3.6,-15.8 -2.4,-4.3 -5.7,-7.7 -9.7,-10.1 -4,-2.4 -8.6,-3.5 -13.7,-3.5 -5.1,0 -9.7,1.2 -13.8,3.5 -4.1,2.4 -7.3,5.7 -9.7,10.1 -2.4,4.3 -3.5,9.6 -3.5,15.8 0,6 1.2,11.3 3.5,15.7 2.4,4.4 5.6,7.8 9.7,10.2 4,2.3 8.6,3.5 13.8,3.5 z"
   id="path283" />
		<path
   class="st0"
   d="M 1255.6,1063.3 V 917 h 30.8 v 146.3 z"
   id="path285" />
		<path
   class="st0"
   d="m 1328.4,1103.1 c -5.5,0 -11,-0.9 -16.4,-2.6 -5.4,-1.7 -9.8,-4.1 -13.2,-7.1 l 11.2,-21.9 c 2.4,2.1 5.1,3.7 8.2,4.9 3.1,1.2 6.1,1.8 9.2,1.8 4.3,0 7.8,-1 10.4,-3.1 2.6,-2 4.9,-5.4 7,-10.2 l 5.5,-13 2.4,-3.4 38.1,-91.5 h 29.6 l -47.9,112.6 c -3.4,8.5 -7.3,15.2 -11.7,20.1 -4.4,4.9 -9.3,8.3 -14.6,10.3 -5.5,2.2 -11.4,3.1 -17.8,3.1 z m 18.1,-35.6 -47.3,-110.2 h 31.7 l 36.7,88.7 z"
   id="path287" />
		<path
   class="st1"
   d="m 1411.4,1063.3 61.5,-138 h 31.5 l 61.7,138 h -33.5 l -50.5,-121.8 h 12.6 l -50.7,121.8 z m 30.7,-29.6 8.5,-24.3 h 71 l 8.7,24.3 z"
   id="path289" />
		<polygon
   class="st1"
   points="1580.5,1063.3 1612.5,1063.3 1612.5,952.8 1612.5,925.3 1580.5,925.3 1580.5,952.8 "
   id="polygon291" />
	</g>
</g>
</svg>
